<svg viewBox="0 0 600 440" xmlns="http://www.w3.org/2000/svg">
  <defs>
  <filter id="grain" x="0" y="0" width="100%" height="100%">
    <feTurbulence type="fractalNoise" baseFrequency="0.8" numOctaves="2" stitchTiles="stitch" result="n"></feTurbulence>
    <feColorMatrix in="n" type="matrix" values="0 0 0 0 0  0 0 0 0 0  0 0 0 0 0  0 0 0 1 0"></feColorMatrix>
    <feComponentTransfer><feFuncA type="discrete" tableValues="0 0 0 0.08 0 0.04 0 0"></feFuncA></feComponentTransfer>
  </filter>
  <radialGradient id="vig" cx="46%" cy="50%" r="66%">
    <stop offset="58%" stop-color="#3a2c12" stop-opacity="0"></stop>
    <stop offset="100%" stop-color="#3a2c12" stop-opacity="0.18"></stop>
  </radialGradient></defs>
  <rect width="600" height="440" fill="#ece1c6"></rect>
  <g opacity="0.1" fill="#a9874a"><circle cx="90" cy="360" r="24"></circle><circle cx="320" cy="80" r="18"></circle><circle cx="540" cy="370" r="20"></circle></g>
  <g stroke="#3b2f20" stroke-width="1" fill="none" opacity="0.5"><line x1="120" y1="220" x2="300" y2="150"></line><line x1="300" y1="150" x2="566" y2="120"></line><line x1="120" y1="220" x2="300" y2="178"></line><line x1="300" y1="178" x2="566" y2="165"></line><line x1="120" y1="220" x2="300" y2="220"></line><line x1="300" y1="220" x2="566" y2="220"></line><line x1="120" y1="220" x2="300" y2="262"></line><line x1="300" y1="262" x2="566" y2="275"></line><line x1="120" y1="220" x2="300" y2="290"></line><line x1="300" y1="290" x2="566" y2="320"></line></g>
  <path d="M300,138 Q332,220 300,302 Q268,220 300,138 Z" fill="#5b7791" fill-opacity="0.22" stroke="#2e2416" stroke-width="1.6"></path>
  <line x1="300" y1="138" x2="300" y2="302" stroke="#2e2416" stroke-width="0.8" opacity="0.5"></line>
  <g transform="translate(120,220)">
    <path d="M-52,0 Q0,-34 52,0 Q0,34 -52,0 Z" fill="#f4eedd" stroke="#2e2416" stroke-width="1.6"></path>
    <circle r="19" fill="#4f6b5e" stroke="#2e2416" stroke-width="1.4"></circle>
    <circle r="8.5" fill="#241c12"></circle>
    <circle cx="-5" cy="-5" r="2.6" fill="#f4eedd"></circle>
  </g>
  <g fill="#3b2f20"><circle cx="414.6" cy="132.3" r="1.22"></circle><circle cx="497.2" cy="319.8" r="1.05"></circle><circle cx="399.0" cy="267.6" r="1.82"></circle><circle cx="474.4" cy="190.1" r="1.73"></circle><circle cx="482.6" cy="318.9" r="1.88"></circle><circle cx="496.8" cy="271.4" r="1.66"></circle><circle cx="481.4" cy="302.2" r="1.30"></circle><circle cx="465.7" cy="279.0" r="1.67"></circle><circle cx="415.1" cy="326.0" r="1.43"></circle><circle cx="457.0" cy="292.7" r="1.57"></circle><circle cx="445.9" cy="192.7" r="1.12"></circle><circle cx="495.3" cy="327.5" r="1.35"></circle><circle cx="417.0" cy="241.5" r="1.44"></circle><circle cx="422.4" cy="329.3" r="1.50"></circle><circle cx="451.2" cy="159.5" r="1.52"></circle><circle cx="410.1" cy="305.7" r="1.65"></circle><circle cx="525.5" cy="175.3" r="1.46"></circle><circle cx="502.4" cy="300.4" r="0.98"></circle><circle cx="401.3" cy="154.1" r="0.82"></circle><circle cx="429.4" cy="224.7" r="1.33"></circle><circle cx="501.8" cy="204.0" r="1.60"></circle><circle cx="436.4" cy="263.2" r="1.11"></circle><circle cx="419.0" cy="290.7" r="0.91"></circle><circle cx="430.5" cy="202.2" r="1.70"></circle><circle cx="460.4" cy="203.8" r="1.40"></circle><circle cx="416.9" cy="262.1" r="1.49"></circle><circle cx="451.1" cy="233.9" r="1.43"></circle><circle cx="405.6" cy="257.1" r="0.99"></circle><circle cx="454.6" cy="194.5" r="1.50"></circle><circle cx="487.6" cy="313.5" r="1.35"></circle><circle cx="443.2" cy="184.2" r="1.84"></circle><circle cx="555.3" cy="172.4" r="1.03"></circle><circle cx="443.8" cy="206.9" r="1.42"></circle><circle cx="436.2" cy="286.6" r="1.64"></circle><circle cx="396.1" cy="176.4" r="1.38"></circle><circle cx="457.3" cy="292.2" r="0.85"></circle><circle cx="463.9" cy="298.7" r="1.64"></circle><circle cx="506.1" cy="295.9" r="1.62"></circle><circle cx="525.7" cy="168.1" r="1.33"></circle><circle cx="429.6" cy="190.3" r="1.75"></circle><circle cx="521.0" cy="312.5" r="1.57"></circle><circle cx="451.7" cy="120.9" r="1.70"></circle><circle cx="495.3" cy="114.3" r="1.12"></circle><circle cx="514.3" cy="210.9" r="1.42"></circle><circle cx="472.9" cy="326.5" r="1.72"></circle><circle cx="530.6" cy="246.6" r="1.72"></circle><circle cx="492.3" cy="312.8" r="1.19"></circle><circle cx="508.8" cy="226.9" r="1.10"></circle><circle cx="460.9" cy="266.2" r="0.83"></circle><circle cx="522.5" cy="181.1" r="1.34"></circle><circle cx="441.8" cy="126.1" r="1.77"></circle><circle cx="419.5" cy="122.3" r="1.66"></circle><circle cx="463.0" cy="305.9" r="1.49"></circle><circle cx="485.4" cy="146.8" r="1.74"></circle><circle cx="517.3" cy="181.4" r="1.61"></circle><circle cx="478.4" cy="162.9" r="0.87"></circle><circle cx="529.6" cy="196.9" r="1.81"></circle><circle cx="421.5" cy="254.0" r="1.79"></circle><circle cx="424.0" cy="145.8" r="1.05"></circle><circle cx="405.3" cy="321.7" r="1.60"></circle><circle cx="410.8" cy="236.3" r="1.78"></circle><circle cx="394.8" cy="189.8" r="1.84"></circle><circle cx="442.9" cy="176.6" r="1.81"></circle><circle cx="430.2" cy="176.1" r="0.89"></circle><circle cx="507.7" cy="133.7" r="1.33"></circle><circle cx="482.1" cy="202.7" r="1.48"></circle><circle cx="463.3" cy="329.8" r="0.83"></circle><circle cx="427.2" cy="207.8" r="1.08"></circle><circle cx="497.7" cy="231.7" r="1.00"></circle><circle cx="398.9" cy="269.1" r="0.97"></circle><circle cx="426.2" cy="198.8" r="1.63"></circle><circle cx="392.2" cy="211.7" r="1.90"></circle><circle cx="392.0" cy="111.2" r="1.18"></circle><circle cx="425.7" cy="252.2" r="1.60"></circle><circle cx="476.8" cy="191.7" r="1.11"></circle><circle cx="409.1" cy="289.2" r="1.57"></circle><circle cx="424.6" cy="237.8" r="1.89"></circle><circle cx="445.5" cy="224.1" r="0.80"></circle><circle cx="437.7" cy="319.8" r="0.92"></circle><circle cx="413.6" cy="240.5" r="1.42"></circle><circle cx="505.0" cy="220.4" r="1.41"></circle><circle cx="536.1" cy="241.6" r="1.09"></circle><circle cx="409.4" cy="234.2" r="0.86"></circle><circle cx="527.5" cy="262.8" r="1.62"></circle><circle cx="554.0" cy="210.9" r="1.67"></circle><circle cx="446.2" cy="314.7" r="1.40"></circle><circle cx="405.0" cy="269.8" r="1.60"></circle><circle cx="393.8" cy="312.1" r="0.97"></circle><circle cx="515.6" cy="298.4" r="1.30"></circle><circle cx="402.5" cy="234.9" r="1.29"></circle><circle cx="451.4" cy="258.5" r="0.89"></circle><circle cx="464.3" cy="222.3" r="1.86"></circle><circle cx="398.3" cy="122.4" r="1.23"></circle><circle cx="445.8" cy="326.2" r="1.17"></circle><circle cx="430.1" cy="136.2" r="1.66"></circle><circle cx="447.2" cy="207.2" r="1.33"></circle><circle cx="549.8" cy="313.0" r="0.98"></circle><circle cx="420.0" cy="147.9" r="1.74"></circle><circle cx="478.0" cy="254.8" r="0.93"></circle><circle cx="430.7" cy="229.0" r="1.52"></circle><circle cx="417.9" cy="179.8" r="1.59"></circle><circle cx="508.0" cy="139.2" r="0.99"></circle><circle cx="448.2" cy="213.4" r="1.39"></circle><circle cx="444.3" cy="321.0" r="1.45"></circle><circle cx="434.6" cy="121.4" r="1.45"></circle><circle cx="456.1" cy="211.4" r="1.48"></circle><circle cx="541.0" cy="288.3" r="1.89"></circle><circle cx="409.3" cy="175.1" r="1.82"></circle><circle cx="526.1" cy="207.6" r="0.95"></circle><circle cx="456.1" cy="128.9" r="0.81"></circle><circle cx="467.5" cy="184.9" r="1.79"></circle><circle cx="446.1" cy="288.9" r="1.10"></circle><circle cx="465.7" cy="225.9" r="0.82"></circle><circle cx="545.8" cy="175.6" r="1.24"></circle><circle cx="425.2" cy="110.8" r="1.02"></circle><circle cx="408.3" cy="273.0" r="0.89"></circle><circle cx="484.5" cy="328.9" r="1.13"></circle><circle cx="424.2" cy="174.0" r="1.12"></circle><circle cx="518.7" cy="176.8" r="0.93"></circle><circle cx="414.1" cy="246.9" r="1.70"></circle><circle cx="423.9" cy="156.1" r="1.07"></circle><circle cx="490.6" cy="240.4" r="1.69"></circle><circle cx="448.4" cy="270.4" r="1.15"></circle><circle cx="413.1" cy="304.1" r="1.41"></circle><circle cx="406.7" cy="261.1" r="1.78"></circle><circle cx="455.3" cy="310.3" r="1.17"></circle><circle cx="560.2" cy="155.7" r="0.96"></circle><circle cx="509.9" cy="329.0" r="1.74"></circle><circle cx="479.2" cy="317.9" r="1.85"></circle><circle cx="426.6" cy="283.2" r="1.34"></circle><circle cx="398.7" cy="144.2" r="1.30"></circle><circle cx="445.3" cy="160.4" r="1.63"></circle></g>
  
  <rect width="600" height="440" filter="url(#grain)"></rect>
  <rect width="600" height="440" fill="url(#vig)"></rect>
</svg>