<svg viewBox="0 0 600 440" xmlns="http://www.w3.org/2000/svg">
  <defs>
  <filter id="grain" x="0" y="0" width="100%" height="100%">
    <feTurbulence type="fractalNoise" baseFrequency="0.8" numOctaves="2" stitchTiles="stitch" result="n"></feTurbulence>
    <feColorMatrix in="n" type="matrix" values="0 0 0 0 0  0 0 0 0 0  0 0 0 0 0  0 0 0 1 0"></feColorMatrix>
    <feComponentTransfer><feFuncA type="discrete" tableValues="0 0 0 0.08 0 0.04 0 0"></feFuncA></feComponentTransfer>
  </filter>
  <radialGradient id="vig" cx="50%" cy="48%" r="66%">
    <stop offset="58%" stop-color="#3a2c12" stop-opacity="0"></stop>
    <stop offset="100%" stop-color="#3a2c12" stop-opacity="0.18"></stop>
  </radialGradient></defs>
  <rect width="600" height="440" fill="#ece1c6"></rect>
  <g opacity="0.1" fill="#a9874a">
    <circle cx="80" cy="90" r="26"></circle><circle cx="520" cy="120" r="20"></circle><circle cx="150" cy="380" r="30"></circle><circle cx="470" cy="380" r="18"></circle>
  </g>
  <g stroke="#3b2f20" stroke-width="1" fill="none" opacity="0.5"><line x1="300" y1="110" x2="175" y2="165"></line><line x1="300" y1="110" x2="430" y2="160"></line><line x1="300" y1="110" x2="300" y2="250"></line><line x1="175" y1="165" x2="110" y2="270"></line><line x1="175" y1="165" x2="300" y2="250"></line><line x1="430" y1="160" x2="300" y2="250"></line><line x1="430" y1="160" x2="495" y2="265"></line><line x1="300" y1="250" x2="200" y2="355"></line><line x1="300" y1="250" x2="410" y2="350"></line><line x1="110" y1="270" x2="200" y2="355"></line><line x1="495" y1="265" x2="410" y2="350"></line><line x1="200" y1="355" x2="305" y2="388"></line><line x1="410" y1="350" x2="305" y2="388"></line><line x1="300" y1="250" x2="305" y2="388"></line></g>
  <g stroke="#3b2f20" stroke-width="1" fill="none" opacity="0.3" stroke-dasharray="2 4"><line x1="175" y1="165" x2="430" y2="160"></line><line x1="110" y1="270" x2="410" y2="350"></line><line x1="495" y1="265" x2="200" y2="355"></line></g>
  <g><g transform="translate(300 110)"><circle r="16" fill="#4f6b5e" stroke="#2e2416" stroke-width="1.4"></circle><circle r="7.4" fill="none" stroke="#efe7d2" stroke-width="1" opacity="0.7"></circle><circle r="1.5" fill="#2e2416"></circle></g><g transform="translate(175 165)"><circle r="10" fill="#b8893f" stroke="#2e2416" stroke-width="1.4"></circle><circle r="4.6" fill="none" stroke="#efe7d2" stroke-width="1" opacity="0.7"></circle><circle r="1.5" fill="#2e2416"></circle></g><g transform="translate(430 160)"><circle r="10" fill="#8f3b2e" stroke="#2e2416" stroke-width="1.4"></circle><circle r="4.6" fill="none" stroke="#efe7d2" stroke-width="1" opacity="0.7"></circle><circle r="1.5" fill="#2e2416"></circle></g><g transform="translate(110 270)"><circle r="8" fill="#5b7791" stroke="#2e2416" stroke-width="1.4"></circle><circle r="3.7" fill="none" stroke="#efe7d2" stroke-width="1" opacity="0.7"></circle><circle r="1.5" fill="#2e2416"></circle></g><g transform="translate(300 250)"><circle r="13" fill="#4f6b5e" stroke="#2e2416" stroke-width="1.4"></circle><circle r="6" fill="none" stroke="#efe7d2" stroke-width="1" opacity="0.7"></circle><circle r="1.5" fill="#2e2416"></circle></g><g transform="translate(495 265)"><circle r="8" fill="#6b4a5a" stroke="#2e2416" stroke-width="1.4"></circle><circle r="3.7" fill="none" stroke="#efe7d2" stroke-width="1" opacity="0.7"></circle><circle r="1.5" fill="#2e2416"></circle></g><g transform="translate(200 355)"><circle r="9" fill="#c2a23f" stroke="#2e2416" stroke-width="1.4"></circle><circle r="4.1" fill="none" stroke="#efe7d2" stroke-width="1" opacity="0.7"></circle><circle r="1.5" fill="#2e2416"></circle></g><g transform="translate(410 350)"><circle r="9" fill="#5b7791" stroke="#2e2416" stroke-width="1.4"></circle><circle r="4.1" fill="none" stroke="#efe7d2" stroke-width="1" opacity="0.7"></circle><circle r="1.5" fill="#2e2416"></circle></g><g transform="translate(305 388)"><circle r="7" fill="#b8893f" stroke="#2e2416" stroke-width="1.4"></circle><circle r="3.2" fill="none" stroke="#efe7d2" stroke-width="1" opacity="0.7"></circle><circle r="1.5" fill="#2e2416"></circle></g></g>
  
  <rect width="600" height="440" filter="url(#grain)"></rect>
  <rect width="600" height="440" fill="url(#vig)"></rect>
</svg>